<?xml version="1.0" encoding="iso-8859-1"?>
<!-- Generator: Adobe Illustrator 19.0.0, SVG Export Plug-In . SVG Version: 6.00 Build 0)  -->
<svg version="1.1" id="Capa_1" xmlns="http://www.w3.org/2000/svg" xmlns:xlink="http://www.w3.org/1999/xlink" x="0px" y="0px"
	 viewBox="0 0 480 480" style="enable-background:new 0 0 480 480;" xml:space="preserve">
<g>
	<g>
		<path fill="#F7B633" d="M352,112c0-22.624,9.504-42.976,24.608-57.536C363.616,50.624,350.112,48,336,48H176
			c-72.352,0-133.824,54.144-142.912,125.984c-0.096,0.672,0.16,1.344,0.16,2.016h351.2C364.864,161.408,352,138.304,352,112z"/>
	</g>
</g>
<g>
	<g>
		<path fill="#F7B633" d="M32,336v16c0,44.128,35.904,80,80,80h288c44.128,0,80-35.872,80-80v-16H32z"/>
	</g>
</g>
<g>
	<g>
		<path fill="#F7B633" d="M400,224c0-5.472,0.576-10.816,1.6-16H48c-26.496,0-48,21.504-48,48c0,26.496,21.504,48,48,48h416
			c2.752,0,5.376-0.352,8-0.8C431.616,299.136,400,265.44,400,224z"/>
	</g>
</g>
</svg>
